# xmcd
# 
# Track frame offsets:
#     183
#     18110
#     43008
#     62635
#     86485
#     111040
#     129233
#     158878
#     174245
# 
# Disc length: 2579
# 
# Revision: 5
# Processed by: cddbd v1.5.2PL0 Copyright (c) Steve Scherf et al.
# Submitted via: BonkEnc v1.0rc2
# 
DISCID=620a1109
DTITLE=Various Artist - Standing Stones
DYEAR=1986
DGENRE=New Age
TTITLE0=Waterfalls - Rick Wakeman
TTITLE1=Emily - John Themis
TTITLE2=The River - Dashiell Rae
TTITLE3=Fur Traders Descending The Missouri - Tom Newman
TTITLE4=Wine Dark Sea - Stephen Caudel
TTITLE5=Spring Awaken ... Larkrise - Claire Hamill
TTITLE6=Johann Sebastian Bach - Brandenburg Concerto No 4 in G-major - Allegro
TTITLE7=Johann Sebastian Bach - Brandenburg Concerto No 4 in G-major - Adagio
TTITLE8=Johann Sebastian Bach - Brandenburg Concerto No 4 in G-major - Presto
EXTD=YEAR: 1986
EXTT0=
EXTT1=
EXTT2=
EXTT3=
EXTT4=
EXTT5=
EXTT6=
EXTT7=
EXTT8=
PLAYORDER=
